HIERARCHY
ROOT root
{
	OFFSET 0.000000 0.000000 0.000000
	CHANNELS 6 Xposition Yposition Zposition Zrotation Yrotation Xrotation
	JOINT lhip
	{
		OFFSET 0.058581 -0.082280 -0.017664
		CHANNELS 3 Zrotation Yrotation Xrotation
		JOINT lknee
		{
			OFFSET 0.043451 -0.386469 0.008037
			CHANNELS 3 Zrotation Yrotation Xrotation
			JOINT lankle
			{
				OFFSET -0.014790 -0.426874 -0.037428
				CHANNELS 3 Zrotation Yrotation Xrotation
				JOINT ltoe
				{
					OFFSET 0.041054 -0.060286 0.122042
					CHANNELS 3 Zrotation Yrotation Xrotation
					End Site
					{
						OFFSET 0.000000 0.000000 0.000000
					}
				}
			}
		}
	}
	JOINT rhip
	{
		OFFSET -0.060310 -0.090513 -0.013543
		CHANNELS 3 Zrotation Yrotation Xrotation
		JOINT rknee
		{
			OFFSET -0.043257 -0.383688 -0.004843
			CHANNELS 3 Zrotation Yrotation Xrotation
			JOINT rankle
			{
				OFFSET 0.019056 -0.420046 -0.034562
				CHANNELS 3 Zrotation Yrotation Xrotation
				JOINT rtoe
				{
					OFFSET -0.034840 -0.062106 0.130323
					CHANNELS 3 Zrotation Yrotation Xrotation
					End Site
					{
						OFFSET 0.000000 0.000000 0.000000
					}
				}
			}
		}
	}
	JOINT lowerback
	{
		OFFSET 0.004439 0.124404 -0.038385
		CHANNELS 3 Zrotation Yrotation Xrotation
		JOINT upperback
		{
			OFFSET 0.004488 0.137956 0.026820
			CHANNELS 3 Zrotation Yrotation Xrotation
			JOINT chest
			{
				OFFSET -0.002265 0.056032 0.002855
				CHANNELS 3 Zrotation Yrotation Xrotation
				JOINT lowerneck
				{
					OFFSET -0.013390 0.211636 -0.033468
					CHANNELS 3 Zrotation Yrotation Xrotation
					JOINT upperneck
					{
						OFFSET 0.010113 0.088937 0.050410
						CHANNELS 3 Zrotation Yrotation Xrotation
						End Site
						{
							OFFSET 0.000000 0.000000 0.000000
						}
					}
				}
				JOINT lclavicle
				{
					OFFSET 0.071702 0.114000 -0.018898
					CHANNELS 3 Zrotation Yrotation Xrotation
					JOINT lshoulder
					{
						OFFSET 0.122921 0.045205 -0.019046
						CHANNELS 3 Zrotation Yrotation Xrotation
						JOINT lelbow
						{
							OFFSET 0.255332 -0.015649 -0.022946
							CHANNELS 3 Zrotation Yrotation Xrotation
							JOINT lwrist
							{
								OFFSET 0.265709 0.012698 -0.007375
								CHANNELS 3 Zrotation Yrotation Xrotation
								End Site
								{
									OFFSET 0.000000 0.000000 0.000000
								}
							}
						}
					}
				}
				JOINT rclavicle
				{
					OFFSET -0.082954 0.112472 -0.023707
					CHANNELS 3 Zrotation Yrotation Xrotation
					JOINT rshoulder
					{
						OFFSET -0.113228 0.046853 -0.008472
						CHANNELS 3 Zrotation Yrotation Xrotation
						JOINT relbow
						{
							OFFSET -0.260127 -0.014369 -0.031269
							CHANNELS 3 Zrotation Yrotation Xrotation
							JOINT rwrist
							{
								OFFSET -0.269108 0.006794 -0.006027
								CHANNELS 3 Zrotation Yrotation Xrotation
								End Site
								{
									OFFSET 0.000000 0.000000 0.000000
								}
							}
						}
					}
				}
			}
		}
	}
}
MOTION
Frames: 13
Frame Time: 0.033333
0.028769 0.256776 1.002091 85.981269 0.588150 93.422770 4.223890 1.951160 -6.400269 -3.808658 -5.431272 8.133611 3.652693 9.025743 -6.636358 0.000000 -0.000000 0.000000 -6.836867 -1.609945 -8.232782 1.364614 5.779490 7.511069 3.387895 -7.359470 -2.676665 0.000000 -0.000000 0.000000 -2.710340 2.332386 2.258979 5.020757 -2.969792 7.051977 -1.004173 3.815568 -7.518361 -1.648320 -8.599989 8.443346 2.900946 -2.652054 6.513080 -17.887771 9.829932 3.359992 -19.851536 4.710113 22.693575 -114.685976 -66.746537 120.585047 -27.117914 -33.078524 -24.447058 24.581313 -8.935925 -3.913758 24.317235 9.005151 -4.490133 -31.356512 33.542408 -18.172284 6.464117 -2.868742 33.034470 
0.029137 0.254560 1.001923 86.235501 0.680105 93.071614 4.460464 2.076708 -6.140867 -3.937432 -6.199814 8.312332 3.213701 9.521161 -6.743999 0.000000 -0.000000 0.000000 -6.577232 -1.685971 -7.789792 1.390599 6.042131 7.559886 3.308260 -7.726274 -3.085595 0.000000 -0.000000 0.000000 -2.668911 2.392635 2.594056 4.423874 -2.761588 6.640826 -1.181906 3.727134 -7.206888 -2.124282 -8.111412 8.385291 2.997146 -2.722636 6.279386 -18.639150 10.810769 2.576669 -21.078638 4.250519 21.054214 -99.939727 -70.609412 106.305814 -27.075308 -30.510663 -21.037326 25.123909 -8.974574 -3.237366 26.446813 8.371664 -3.815907 -27.591637 32.849000 -17.821096 6.173304 -2.024980 31.770799 
0.029209 0.252333 1.001738 86.363668 0.838465 92.787215 4.679603 2.210695 -5.910564 -3.883975 -6.654067 8.380679 2.784750 9.807054 -6.791738 0.000000 -0.000000 0.000000 -6.242882 -1.673498 -7.583381 1.397851 6.215790 7.774013 2.949777 -7.641747 -3.736897 0.000000 -0.000000 0.000000 -2.391835 2.380831 3.065819 3.718545 -2.343006 6.633620 -1.434781 3.817417 -7.595481 -1.942682 -7.531592 7.976077 2.611562 -3.088231 6.245879 -20.107888 11.981942 1.305259 -22.759975 3.481999 18.901820 -74.748167 -73.229415 82.228069 -28.075180 -27.070863 -14.675991 25.570862 -9.089343 -2.494942 28.518549 7.477238 -2.780747 -23.746121 32.289014 -16.014115 6.778573 -1.809364 30.219111 
0.029497 0.250074 1.001691 86.594686 0.966083 92.529710 4.823231 2.427419 -5.641337 -3.798472 -7.349037 8.314674 2.209934 10.194748 -6.957095 0.000000 -0.000000 0.000000 -5.987004 -1.903860 -7.439125 1.525803 5.997538 8.249966 2.702009 -7.540745 -4.267543 0.000000 -0.000000 0.000000 -1.669281 2.272950 3.507375 2.566918 -1.907246 6.716269 -1.910122 3.290212 -8.242963 -1.392040 -6.811943 7.514813 1.847488 -3.054810 6.333048 -22.735132 13.023537 -0.049424 -25.852133 3.290295 15.606015 -33.902925 -72.507806 43.093675 -28.259196 -21.683547 -4.787266 26.374746 -8.601050 -1.198333 30.918939 7.162436 -1.699636 -19.521080 30.200659 -13.418116 9.347044 -1.684946 29.350155 
0.029422 0.248790 1.001521 86.831765 1.002847 92.378569 4.890794 2.494619 -5.548541 -3.813407 -7.853213 8.360425 1.810392 10.398642 -7.104108 0.000000 -0.000000 0.000000 -5.857952 -2.035377 -7.262252 1.526704 5.919299 8.324795 2.375973 -7.522656 -4.566680 0.000000 -0.000000 0.000000 -1.340709 2.176208 3.799489 1.880130 -1.742052 6.915216 -2.071144 2.951068 -8.748058 -1.086017 -6.773457 7.509443 1.356451 -2.888410 5.991984 -24.493526 13.267200 -0.829146 -28.054300 3.192733 13.765233 -13.446598 -69.307520 23.028564 -26.125268 -18.793480 -0.968613 26.417488 -8.105161 -0.668992 32.504087 6.926114 -0.754547 -16.510505 28.400155 -12.488925 9.767837 -1.105603 26.478189 
0.029351 0.247427 1.001148 87.067411 1.058047 92.297243 4.981246 2.499856 -5.336506 -3.726628 -8.223458 8.060662 1.492188 10.548791 -7.089151 0.000000 -0.000000 0.000000 -5.655239 -2.085508 -7.117402 1.437151 5.788259 8.329024 2.003418 -7.524197 -4.825127 0.000000 -0.000000 0.000000 -0.875857 2.063179 4.202723 1.019854 -1.434656 6.642065 -2.362049 2.575751 -9.064931 -0.794156 -6.992333 7.155762 1.001500 -2.413923 6.117648 -26.164063 13.445491 -1.711837 -31.964055 3.050806 12.128360 5.629954 -63.204994 2.217862 -19.990141 -16.057938 -0.724789 26.333573 -7.666249 -0.376850 35.008059 6.839081 1.049394 -13.233314 25.547515 -10.761712 9.698554 -0.279050 22.494754 
0.029577 0.246101 1.000601 87.359691 1.155631 92.263666 5.142085 2.389675 -5.141500 -3.671202 -8.551438 7.765878 1.200084 10.635770 -7.041510 0.000000 -0.000000 0.000000 -5.418477 -2.104859 -6.884981 1.336454 5.637054 8.108993 1.940255 -7.492471 -4.978626 0.000000 -0.000000 0.000000 -0.567109 2.014206 4.556677 0.375854 -1.230452 5.912603 -2.502014 2.384712 -8.988537 -0.650326 -7.336633 7.030594 0.837429 -1.992368 6.221731 -26.947593 13.192809 -2.111356 -36.749349 2.672646 10.674833 17.747640 -56.704381 -12.104880 -15.625148 -14.502835 -3.440445 25.801639 -7.377407 0.160617 38.064022 6.680385 2.462370 -11.422021 23.429827 -7.533518 10.084192 -0.383090 20.918102 
0.029914 0.244931 1.000099 87.674453 1.248309 92.251173 5.324935 2.296057 -5.049370 -3.636275 -8.731353 7.616763 1.015643 10.632562 -7.016862 0.000000 -0.000000 0.000000 -5.197465 -2.180743 -6.620932 1.189160 5.442618 7.823721 1.918076 -7.477367 -5.021189 0.000000 -0.000000 0.000000 -0.476584 1.907060 4.872638 -0.026541 -1.087695 4.971877 -2.412498 2.299825 -8.693587 -0.677526 -7.566717 6.905574 0.634010 -1.428613 6.380656 -26.905094 12.913930 -2.202522 -41.430235 2.096058 10.010719 24.137071 -50.754686 -21.319243 -9.526380 -12.874825 -6.952336 25.033962 -7.222646 0.698655 40.904155 6.409978 4.161256 -9.923454 21.911766 -4.565442 9.619694 0.111903 18.500892 
0.030236 0.243867 0.999810 87.978879 1.316677 92.242412 5.478970 2.219419 -5.005238 -3.624037 -8.886248 7.605027 0.869452 10.508705 -7.005182 0.000000 -0.000000 0.000000 -5.035474 -2.221758 -6.420120 1.108925 5.252936 7.680019 1.937649 -7.523139 -5.084464 0.000000 -0.000000 0.000000 -0.383474 1.814836 5.071563 -0.376720 -0.963913 4.427912 -2.397562 2.168600 -8.582134 -0.485531 -7.374250 6.619733 0.343672 -1.438052 6.529300 -27.204234 12.618046 -2.388523 -44.172388 1.708256 9.614564 27.335256 -46.783596 -25.265296 -7.298243 -11.955280 -7.354466 24.451299 -6.882006 1.249730 43.422358 5.871337 5.452338 -8.983937 21.205742 -3.273997 9.572085 0.641905 15.914174 
0.030906 0.243003 0.999556 88.294294 1.301674 92.227627 5.592143 2.323130 -4.925292 -3.734450 -9.144860 7.583269 0.745675 10.362306 -7.148993 0.000000 -0.000000 0.000000 -4.965128 -2.237483 -6.135630 1.019435 5.109109 7.452246 1.910639 -7.657302 -5.185257 0.000000 -0.000000 0.000000 -0.371497 1.712300 5.219185 -0.740111 -0.869962 4.120679 -2.505158 1.963037 -8.769511 0.078627 -6.804334 6.019823 0.007932 -1.519204 6.902628 -27.562640 12.506574 -2.546819 -45.673899 1.736139 9.907065 28.402244 -44.311580 -24.839504 -6.320410 -11.394861 -5.162476 24.014236 -6.553746 1.668698 46.035125 4.753366 7.202418 -7.985840 21.578853 -2.001705 9.534159 1.585107 12.284715 
0.031231 0.242396 0.999367 88.523980 1.273423 92.219469 5.635735 2.400188 -4.791159 -3.755537 -9.403970 7.343283 0.703641 10.314460 -7.095016 0.000000 -0.000000 0.000000 -4.915816 -2.262136 -5.984504 0.950338 5.022751 7.366537 1.871288 -7.770522 -5.240746 0.000000 -0.000000 0.000000 -0.423334 1.735842 5.227419 -0.956409 -0.958402 4.133667 -2.608985 1.732770 -8.889064 0.379327 -6.490843 5.433481 0.098065 -1.488210 6.758908 -27.733267 12.216591 -2.475251 -46.006097 2.090453 10.557115 27.322272 -43.277406 -22.570468 -5.296974 -11.325069 -3.425463 23.715469 -6.254183 1.816056 47.722866 3.876651 8.617896 -6.638857 22.449277 -0.669319 8.561142 3.071168 9.871861 
0.031673 0.242163 0.999279 88.709421 1.228661 92.202515 5.598801 2.380743 -4.719810 -3.740021 -9.633571 7.269190 0.677935 10.391312 -7.123702 0.000000 -0.000000 0.000000 -4.943693 -2.279125 -5.869159 0.948343 4.963077 7.335202 1.802187 -7.860125 -5.334596 0.000000 -0.000000 0.000000 -0.394813 1.789516 5.259049 -1.147716 -1.164802 4.242080 -2.720099 1.490679 -9.078322 0.435006 -6.447465 4.891390 0.357838 -1.038973 6.280348 -28.083656 11.749471 -2.220156 -46.053757 2.608216 11.094898 25.913850 -42.356872 -20.538553 -4.680629 -11.020757 -2.364575 23.558772 -5.941366 1.955033 48.760641 3.153078 9.728750 -4.694890 23.660958 1.497901 7.861770 3.673629 8.865119 
0.031882 0.242117 0.998973 88.794548 1.199538 92.157245 5.598467 2.412173 -4.764400 -3.821534 -9.866954 7.456841 0.577961 10.522211 -7.158924 0.000000 -0.000000 0.000000 -4.966880 -2.285076 -5.778039 0.954129 4.959560 7.329942 1.752123 -7.957387 -5.362988 0.000000 -0.000000 0.000000 -0.455552 1.837127 5.208883 -1.249498 -1.383763 4.550312 -2.731133 1.307891 -9.225276 0.417119 -6.514857 4.089568 0.726438 -0.375362 5.761887 -28.351539 10.845326 -1.793611 -46.328017 3.026351 11.628310 24.205493 -40.910374 -18.321839 -4.036864 -10.879436 -2.335299 23.480289 -5.258646 2.242742 49.459860 2.857494 10.634699 -2.386426 24.347822 4.161911 6.919109 3.996061 8.695222 
